<?xml version="1.0" encoding="UTF-8" standalone="no"?>
<!DOCTYPE svg PUBLIC "-//W3C//DTD SVG 1.1//EN" "http://www.w3.org/Graphics/SVG/1.1/DTD/svg11.dtd">
<svg width="100%" height="100%" viewBox="0 0 298 298" version="1.1" xmlns="http://www.w3.org/2000/svg" xmlns:xlink="http://www.w3.org/1999/xlink" xml:space="preserve" xmlns:serif="http://www.serif.com/" style="fill-rule:evenodd;clip-rule:evenodd;stroke-linejoin:round;stroke-miterlimit:2;">
    <g transform="matrix(1,0,0,1,-75.0545,-171.487)">
        <g id="radio.svg" transform="matrix(16.5014,0,0,16.5014,223.567,320)">
            <g transform="matrix(1,0,0,1,-9,-9)">
                <g>
                    <g transform="matrix(0.745992,0,0,0.861323,2.28607,1.73513)">
                        <path d="M9,5.368C9.527,5.368 11.5,8.147 11.5,9C11.5,10.38 10.38,11.5 9,11.5C7.62,11.5 6.5,10.38 6.5,9C6.5,8.208 8.412,5.368 9,5.368Z" style="fill:rgb(6,156,81);"/>
                    </g>
                    <path d="M6.172,5.111C5.88,4.819 5.405,4.817 5.111,5.111C4.072,6.15 3.5,7.531 3.5,9C3.5,10.469 4.072,11.851 5.111,12.889C5.257,13.035 5.449,13.109 5.641,13.109C5.833,13.109 6.025,13.036 6.171,12.889C6.464,12.596 6.464,12.121 6.171,11.828C5.415,11.073 4.999,10.068 4.999,8.999C4.999,7.93 5.415,6.926 6.171,6.17C6.464,5.877 6.464,5.402 6.171,5.109L6.172,5.111Z" style="fill:rgb(23,197,110);fill-rule:nonzero;"/>
                    <path d="M4.05,4.05C4.343,3.757 4.343,3.282 4.05,2.989C3.757,2.696 3.282,2.696 2.989,2.989C1.384,4.595 0.5,6.729 0.5,9C0.5,11.271 1.384,13.405 2.989,15.01C3.135,15.156 3.327,15.23 3.519,15.23C3.711,15.23 3.903,15.157 4.049,15.01C4.342,14.717 4.342,14.242 4.049,13.949C1.32,11.22 1.32,6.779 4.049,4.05L4.05,4.05Z" style="fill:rgb(26,232,129);fill-rule:nonzero;"/>
                    <path d="M12.889,5.111C12.596,4.818 12.121,4.818 11.828,5.111C11.535,5.404 11.535,5.879 11.828,6.172C12.584,6.927 13,7.932 13,9.001C13,10.07 12.584,11.074 11.828,11.83C11.535,12.123 11.535,12.598 11.828,12.891C11.974,13.037 12.166,13.111 12.358,13.111C12.549,13.111 12.742,13.038 12.888,12.891C13.927,11.852 14.499,10.471 14.499,9.002C14.499,7.533 13.927,6.151 12.888,5.113L12.889,5.111Z" style="fill:rgb(23,197,110);fill-rule:nonzero;"/>
                    <path d="M15.011,2.99C14.718,2.697 14.243,2.697 13.95,2.99C13.657,3.283 13.657,3.758 13.95,4.051C16.679,6.78 16.679,11.221 13.95,13.95C13.657,14.243 13.657,14.718 13.95,15.011C14.096,15.157 14.288,15.231 14.48,15.231C14.672,15.231 14.864,15.158 15.01,15.011C16.615,13.406 17.499,11.271 17.499,9.001C17.499,6.731 16.615,4.596 15.01,2.991L15.011,2.99Z" style="fill:rgb(26,232,129);fill-rule:nonzero;"/>
                </g>
            </g>
        </g>
    </g>
</svg>
